# xmcd
#
# Track frame offsets: 
#        150
#        17077
#        34730
#        51142
#        67865
#        83952
#        101075
#        120292
#        137690
#        158992
#        177512
#        197712
#
# Disc length: 2884 seconds
#
# Revision: 1
# Processed by: cddbd v1.5.2PL0 Copyright (c) Steve Scherf et al.
# Submitted via: ExactAudioCopy v1.0b1
#
DISCID=9b0b420c
DTITLE=鄭秀文 - 濃情
DYEAR=1996
DGENRE=Chinese Pop
TTITLE0=X派對
TTITLE1=濃情
TTITLE2=默契
TTITLE3=不想性感
TTITLE4=呼之欲出
TTITLE5=最後勝利
TTITLE6=請放心
TTITLE7=驚天動地
TTITLE8=加爾各答的天使
TTITLE9=談情說愛
TTITLE10=猶豫
TTITLE11=心事
EXTD=
EXTT0=
EXTT1=
EXTT2=
EXTT3=
EXTT4=
EXTT5=
EXTT6=
EXTT7=
EXTT8=
EXTT9=
EXTT10=
EXTT11=
PLAYORDER=
